<?xml version="1.0" encoding="iso-8859-1"?>
<!-- Uploaded to: SVG Repo, www.svgrepo.com, Generator: SVG Repo Mixer Tools -->
<svg height="800px" width="800px" version="1.1" id="Layer_1" xmlns="http://www.w3.org/2000/svg" xmlns:xlink="http://www.w3.org/1999/xlink" 
	 viewBox="0 0 504.014 504.014" xml:space="preserve">
<g transform="translate(1 1)">
	<path style="fill:#FFD0A1;" d="M140.12,191.274l34.133,25.6c0,14.507,11.093,25.6,25.6,25.6h17.067c14.507,0,25.6-11.093,25.6-25.6
		h17.067c0,14.507,11.093,25.6,25.6,25.6h17.067c14.507,0,25.6-11.093,25.6-25.6l34.133-25.6h17.067
		c0,34.133-25.6,102.4-34.133,119.467c-4.267,8.533-17.92,26.453-34.987,41.813c-17.067,14.507-37.547,26.453-58.88,26.453
		s-41.813-11.947-58.88-26.453c-17.92-15.36-30.72-32.427-34.987-41.813c-8.533-17.067-34.133-85.333-34.133-119.467H140.12
		L140.12,191.274z M191.32,191.274c-9.387,0-17.067,7.68-17.067,17.067v8.533l-34.133-25.6h-17.067V157.14v-34.133
		c0,0,51.2,25.6,128,25.6s128-25.6,128-25.6v34.133v34.133h-17.067l-34.133,25.6v-8.533c0-9.387-7.68-17.067-17.067-17.067h-34.133
		c-9.387,0-17.067,7.68-17.067,17.067v8.533H242.52v-8.533c0-9.387-7.68-17.067-17.067-17.067H191.32L191.32,191.274z"/>
	<path style="fill:#FF7474;" d="M379.053,430.207l-51.2,34.133l-34.133-17.067l19.627-12.8l31.573-21.333L379.053,430.207z
		 M208.387,447.274l-34.133,17.067l-51.2-34.133l34.133-17.067l31.573,21.333L208.387,447.274z M208.387,481.407
		c0,0,17.067,17.067,42.667,17.067H3.587c0,0,9.387-29.013,43.52-50.347c11.093-6.827,24.747-13.653,41.813-17.92h34.133
		l51.2,34.133l34.133-17.067V481.407z M498.52,498.474H251.053c25.6,0,42.667-17.067,42.667-17.067v-34.133l34.133,17.067
		l51.2-34.133h34.133c17.067,4.267,30.72,11.093,41.813,17.92C489.133,469.46,498.52,498.474,498.52,498.474z"/>
	<path style="fill:#AE938D;" d="M430.253,396.074l25.6,51.2L455,448.127c-11.093-6.827-24.747-13.653-41.813-17.92h-34.133
		L344.92,413.14l-31.573,21.333l-2.56-4.267v-76.8l-0.853-0.853c17.92-15.36,30.72-32.427,34.987-41.813
		c8.533-17.067,34.133-85.333,34.133-119.467V157.14c0,0,34.133,17.067,34.133,85.333v68.267
		C413.187,353.407,430.253,396.074,430.253,396.074z M191.32,353.407v76.8l-2.56,4.267l-31.573-21.333l-34.133,17.067H88.92
		c-17.067,4.267-30.72,11.093-41.813,17.92l-0.853-0.853l25.6-51.2c0,0,17.067-42.667,17.067-85.333v-68.267
		c0-68.267,34.133-85.333,34.133-85.333v34.133c0,34.133,25.6,102.4,34.133,119.467c4.267,8.533,17.92,26.453,34.987,41.813
		L191.32,353.407z"/>
	<path style="fill:#FFD0A1;" d="M191.32,430.207v-76.8l0.853-0.853c17.067,14.507,37.547,26.453,58.88,26.453
		s41.813-11.947,58.88-26.453l0.853,0.853v76.8l2.56,4.267l-19.627,12.8v34.133c0,0-17.067,17.067-42.667,17.067
		s-42.667-17.067-42.667-17.067v-34.133l-19.627-12.8L191.32,430.207z"/>
	<path style="fill:#AAB1BA;" d="M54.787,29.14l196.267-25.6l196.267,25.6l-68.267,8.533l-128,17.067l-128-17.067L54.787,29.14z
		 M379.053,37.674v85.333c0,0-51.2,25.6-128,25.6s-128-25.6-128-25.6V37.674l128,17.067L379.053,37.674z"/>
	<path style="fill:#FFE079;" d="M447.32,71.807c0,0,17.067,17.067,17.067,34.133s-17.067,17.067-17.067,17.067
		s-17.067,0-17.067-17.067S447.32,71.807,447.32,71.807"/>
	<path style="fill:#F2EDDA;" d="M310.787,191.274c9.387,0,17.067,7.68,17.067,17.067v8.533c0,14.507-11.093,25.6-25.6,25.6h-17.067
		c-14.507,0-25.6-11.093-25.6-25.6v-8.533c0-9.387,7.68-17.067,17.067-17.067H310.787z M174.253,208.34
		c0-9.387,7.68-17.067,17.067-17.067h34.133c9.387,0,17.067,7.68,17.067,17.067v8.533c0,14.507-11.093,25.6-25.6,25.6h-17.067
		c-14.507,0-25.6-11.093-25.6-25.6V208.34z"/>
</g>
<path style="fill:#51565F;" d="M4.587,503.74c-0.853,0-0.853,0-1.707,0c-2.56-0.853-3.413-3.413-2.56-5.12
	c0.853-2.56,18.773-53.76,88.747-70.827c2.56-0.853,4.267,0.853,5.12,3.413c0.853,2.56-0.853,4.267-3.413,5.12
	C25.92,452.54,8.853,501.18,8.853,502.034C8,502.887,6.293,503.74,4.587,503.74z M252.053,503.74
	c-27.307,0-45.227-17.92-46.08-17.92c-0.853-0.853-0.853-1.707-0.853-3.413v-31.573l-46.933-31.573l-25.6,12.8l45.227,29.867
	c0.853,0.853,1.707,2.56,1.707,3.413c0,0.853,0,1.707-0.853,2.56c-1.707,1.707-4.267,2.56-5.973,0.853l-51.2-34.133l-0.853-0.853
	c0,0-0.853-0.853-0.853-1.707c0-0.853,0-0.853,0-1.707s0-0.853,0.853-1.707c0-0.853,0.853-0.853,0.853-0.853l0.853-0.853
	l34.133-17.067c1.707-0.853,3.413-0.853,4.267,0l51.2,34.133c0.853,0.853,1.707,1.707,1.707,3.413v32.427
	c4.267,3.413,18.773,14.507,38.4,14.507s34.133-11.093,38.4-14.507v-31.572c0-1.707,0.853-2.56,1.707-3.413l51.2-34.133
	c0.853-0.853,2.56-0.853,4.267,0l34.133,17.067c1.707,0.853,2.56,3.413,1.707,5.973c0,0.853-0.853,1.707-1.707,1.707l-51.2,34.133
	c-1.707,1.707-4.267,0.853-5.973-0.853c-0.853-0.853-0.853-1.707-0.853-2.56c0-1.707,0.853-2.56,1.707-3.413l45.227-29.867
	l-25.6-12.8l-46.933,31.573v31.573c0,0.853-0.853,2.56-0.853,3.413C297.28,485.82,279.36,503.74,252.053,503.74z M499.52,503.74
	c-1.707,0-3.413-0.853-4.267-2.56c0-0.853-17.067-49.493-81.92-65.707c-2.56-0.853-3.413-2.56-3.413-5.12
	c0.853-2.56,2.56-3.413,5.12-3.413c69.973,17.067,87.893,69.12,88.747,70.827c0.853,2.56-0.853,4.267-2.56,5.12
	C500.373,503.74,500.373,503.74,499.52,503.74z M431.253,401.34c-1.707,0-3.413-0.853-4.267-2.56
	c-0.853-1.707-17.067-43.52-17.067-87.04v-68.267c0-46.08-16.213-68.267-25.6-76.8v25.6c0,35.84-26.453,104.96-34.987,121.173
	c-7.68,15.36-51.2,70.827-97.28,70.827s-90.453-55.467-97.28-70.827c-7.68-16.213-34.987-85.333-34.987-121.173v-25.6
	c-9.387,8.533-25.6,30.72-25.6,76.8v68.267c0,42.667-17.067,85.333-17.067,87.04c-0.853,2.56-3.413,3.413-5.12,2.56
	c-2.56-0.853-3.413-3.413-2.56-5.12c0,0,17.067-42.667,17.067-83.627v-68.267c0-69.973,34.987-88.747,36.693-88.747
	c1.707-0.853,2.56-0.853,4.267,0c0.853,0.853,1.707,2.56,1.707,3.413v34.133c0,33.28,24.747,99.84,33.28,117.76
	c9.387,17.92,50.347,65.707,90.453,65.707s81.067-47.787,90.453-65.707c8.533-17.067,33.28-84.48,33.28-117.76v-34.133
	c0-1.707,0.853-2.56,1.707-3.413c0.853-0.853,2.56-0.853,4.267,0c1.707,0.853,36.693,18.773,36.693,88.747v68.267
	c0,40.96,16.213,83.627,17.067,83.627c0.853,2.56,0,4.267-2.56,5.12C432.107,401.34,432.107,401.34,431.253,401.34z M252.053,324.54
	c-18.773,0-28.16-9.387-29.013-9.387c-1.707-1.707-1.707-4.267,0-5.973c1.707-1.707,4.267-1.707,5.973,0c0,0,7.68,7.68,22.187,7.68
	c14.507,0,22.187-6.827,22.187-7.68c1.707-1.707,4.267-1.707,5.973,0c1.707,1.707,1.707,4.267,0,5.973
	C280.213,315.154,270.827,324.54,252.053,324.54z M303.253,247.74h-17.067c-16.213,0-29.867-13.653-29.867-29.867v-8.533
	c0-11.947,9.387-21.333,21.333-21.333h34.133c11.947,0,21.333,9.387,21.333,21.333l27.307-20.48
	c1.707-1.707,4.267-0.853,5.973,0.853c0.853,0.853,0.853,1.707,0.853,2.56c0,1.707-0.853,2.56-1.707,3.413l-32.427,24.747
	C332.267,235.794,318.613,247.74,303.253,247.74z M277.653,196.54c-6.827,0-12.8,5.973-12.8,12.8v8.533
	c0,11.947,9.387,21.333,21.333,21.333h17.067c11.947,0,21.333-9.387,21.333-21.333l0,0l0,0v-8.533c0-6.827-5.973-12.8-12.8-12.8
	H277.653z M217.92,247.74h-17.067c-15.36,0-29.013-11.947-29.867-27.307l-32.427-24.747c-0.853-0.853-1.707-1.707-1.707-3.413
	c0-0.853,0-1.707,0.853-2.56c1.707-1.707,4.267-2.56,5.973-0.853l27.307,20.48c0-11.947,9.387-21.333,21.333-21.333h34.133
	c11.947,0,21.333,9.387,21.333,21.333v8.533C247.787,234.087,234.133,247.74,217.92,247.74z M179.52,217.874
	c0,11.947,9.387,21.333,21.333,21.333h17.067c11.947,0,21.333-9.387,21.333-21.333v-8.533c0-6.827-5.973-12.8-12.8-12.8H192.32
	c-6.827,0-12.8,5.973-12.8,12.8V217.874L179.52,217.874L179.52,217.874z M252.053,153.874c-76.8,0-128-24.747-129.707-26.453
	c-1.707-0.853-2.56-2.56-2.56-3.413V64.274c0-2.56,1.707-4.267,4.267-4.267c2.56,0,4.267,1.707,4.267,4.267v57.173
	c11.093,5.12,58.027,23.893,123.733,23.893s112.64-19.627,123.733-23.893V64.274c0-2.56,1.707-4.267,4.267-4.267
	s4.267,1.707,4.267,4.267v59.733c0,1.707-0.853,3.413-2.56,3.413C380.053,129.127,328.853,153.874,252.053,153.874z M448.32,128.274
	c-7.68,0-21.333-4.267-21.333-21.333c0-16.213,12.8-31.573,17.067-35.84V35.26L252.907,60.007h-0.853l-196.267-25.6
	c-1.707,0-3.413-1.707-3.413-4.267s1.707-4.267,3.413-4.267l196.267-25.6h0.853l196.267,25.6c0.853,0,0.853,0,1.707,0.853l0,0l0,0
	c0,0,0.853,0,0.853,0.853l0,0l0,0c0.853,0.853,0.853,1.707,0.853,2.56l0,0l0,0l0,0l0,0l0,0l0,0l0,0l0,0l0,0l0,0V71.1
	c4.267,4.267,17.067,19.627,17.067,35.84C469.653,124.007,456,128.274,448.32,128.274z M448.32,78.78
	c-4.267,5.12-12.8,17.067-12.8,28.16c0,11.947,11.093,12.8,12.8,12.8c1.707,0,12.8-0.853,12.8-12.8
	C461.12,95.847,452.587,84.754,448.32,78.78z M89.067,30.14l162.987,21.333L415.04,30.14L252.053,8.807L89.067,30.14z"/>
</svg>